<svg width="80" height="80" viewBox="0 0 80 80" fill="none" xmlns="http://www.w3.org/2000/svg">
<g clip-path="url(#clip0_1_60)">
<path d="M78.482 24.9536L41.9195 0.578616C40.6716 -0.189352 39.3397 -0.196384 38.0803 0.578616L1.51781 24.9536C0.580312 25.5785 0 26.6947 0 27.8106V52.1855C0 53.3016 0.580313 54.4177 1.51797 55.0427L38.0805 79.4211C39.3284 80.1891 40.6603 80.1961 41.9197 79.4211L78.4822 55.0427C79.4197 54.4178 80.0002 53.3016 80.0002 52.1855V27.8106C80 26.6947 79.4197 25.5785 78.482 24.9536ZM43.4375 9.86409L70.3572 27.8106L58.3483 35.8464L43.4375 25.891V9.86409ZM36.5625 9.86409V25.891L21.6517 35.8464L9.64281 27.8106L36.5625 9.86409ZM6.875 34.2392L15.4911 39.9981L6.875 45.7571V34.2392ZM36.5625 70.1322L9.64281 52.1856L21.6517 44.1499L36.5625 54.1053V70.1322ZM40 48.1231L27.857 39.9981L40 31.8731L52.143 39.9981L40 48.1231ZM43.4375 70.1322V54.1053L58.3483 44.1499L70.3572 52.1856L43.4375 70.1322ZM73.125 45.7571L64.5089 39.9981L73.125 34.2392V45.7571Z" fill="black"/>
</g>
<defs>
<clipPath id="clip0_1_60">
<rect width="80" height="80" fill="white"/>
</clipPath>
</defs>
</svg>
