<svg width="80" height="80" viewBox="0 0 80 80" fill="none" xmlns="http://www.w3.org/2000/svg">
<path d="M40.0156 22.0312C30.0781 22.0312 22.0625 30.0469 22.0625 39.9844C22.0625 49.9219 30.0781 57.9375 40.0156 57.9375C49.9531 57.9375 57.9688 49.9219 57.9688 39.9844C57.9688 30.0469 49.9531 22.0312 40.0156 22.0312ZM40.0156 51.6562C33.5938 51.6562 28.3437 46.4219 28.3437 39.9844C28.3437 33.5469 33.5781 28.3125 40.0156 28.3125C46.4531 28.3125 51.6875 33.5469 51.6875 39.9844C51.6875 46.4219 46.4375 51.6562 40.0156 51.6562ZM62.8906 21.2969C62.8906 23.625 61.0156 25.4844 58.7031 25.4844C56.375 25.4844 54.5156 23.6094 54.5156 21.2969C54.5156 18.9844 56.3906 17.1094 58.7031 17.1094C61.0156 17.1094 62.8906 18.9844 62.8906 21.2969ZM74.7812 25.5469C74.5156 19.9375 73.2344 14.9688 69.125 10.875C65.0312 6.78125 60.0625 5.5 54.4531 5.21875C48.6719 4.89062 31.3438 4.89062 25.5625 5.21875C19.9688 5.48438 15 6.76562 10.8906 10.8594C6.78125 14.9531 5.51562 19.9219 5.23437 25.5312C4.90625 31.3125 4.90625 48.6406 5.23437 54.4219C5.5 60.0312 6.78125 65 10.8906 69.0938C15 73.1875 19.9531 74.4688 25.5625 74.75C31.3438 75.0781 48.6719 75.0781 54.4531 74.75C60.0625 74.4844 65.0312 73.2031 69.125 69.0938C73.2188 65 74.5 60.0312 74.7812 54.4219C75.1094 48.6406 75.1094 31.3281 74.7812 25.5469ZM67.3125 60.625C66.0938 63.6875 63.7344 66.0469 60.6563 67.2812C56.0469 69.1094 45.1094 68.6875 40.0156 68.6875C34.9219 68.6875 23.9688 69.0938 19.375 67.2812C16.3125 66.0625 13.9531 63.7031 12.7188 60.625C10.8906 56.0156 11.3125 45.0781 11.3125 39.9844C11.3125 34.8906 10.9063 23.9375 12.7188 19.3438C13.9375 16.2812 16.2969 13.9219 19.375 12.6875C23.9844 10.8594 34.9219 11.2812 40.0156 11.2812C45.1094 11.2812 56.0625 10.875 60.6563 12.6875C63.7188 13.9062 66.0781 16.2656 67.3125 19.3438C69.1406 23.9531 68.7188 34.8906 68.7188 39.9844C68.7188 45.0781 69.1406 56.0312 67.3125 60.625Z" fill="black"/>
</svg>
