<svg width="80" height="80" viewBox="0 0 80 80" fill="none" xmlns="http://www.w3.org/2000/svg">
<path d="M70 5H9.98437C7.23437 5 5 7.26563 5 10.0469V69.9531C5 72.7344 7.23437 75 9.98437 75H70C72.75 75 75 72.7344 75 69.9531V10.0469C75 7.26563 72.75 5 70 5ZM26.1562 65H15.7812V31.5937H26.1719V65H26.1562ZM20.9687 27.0312C17.6406 27.0312 14.9531 24.3281 14.9531 21.0156C14.9531 17.7031 17.6406 15 20.9687 15C24.2812 15 26.9844 17.7031 26.9844 21.0156C26.9844 24.3437 24.2969 27.0312 20.9687 27.0312ZM65.0469 65H54.6719V48.75C54.6719 44.875 54.5937 39.8906 49.2812 39.8906C43.875 39.8906 43.0469 44.1094 43.0469 48.4688V65H32.6719V31.5937H42.625V36.1562H42.7656C44.1562 33.5312 47.5469 30.7656 52.5938 30.7656C63.0938 30.7656 65.0469 37.6875 65.0469 46.6875V65Z" fill="black"/>
</svg>
