<svg width="369" height="69" viewBox="0 0 369 69" fill="none" xmlns="http://www.w3.org/2000/svg">
<path d="M18.944 0.799995C8.96 0.799995 0.896 8.96 0.896 18.944V68H12.8V37.184H56.096V25.184H12.896V18.944C12.896 15.584 15.68 12.8 19.04 12.8H68.096V0.799995H18.944ZM130.929 56L102.801 0.799995L74.6727 56L68.5287 68H81.9687L88.1128 56L102.801 27.2L117.489 56L123.633 68H137.073L130.929 56ZM186.069 0.799995H152.469V68H186.069C195.285 68 203.637 64.256 209.685 58.112C210.357 57.44 211.029 56.768 211.605 56.096C216.597 50.24 219.573 42.656 219.573 34.4C219.573 15.872 204.501 0.895994 185.973 0.895994L186.069 0.799995ZM185.973 56.096H164.373V12.896H185.973C197.877 12.896 207.573 22.592 207.573 34.496C207.573 46.4 197.877 56.096 185.973 56.096ZM259.01 56C254.786 55.424 251.426 52.064 250.85 47.84V0.895994H238.85V46.688C238.85 50.048 239.618 53.216 241.058 56.096C243.074 60.32 246.53 63.776 250.754 65.888C253.634 67.328 256.802 68.096 260.162 68.096H294.242V56.096L259.01 56ZM333.579 56C329.355 55.424 325.995 52.064 325.419 47.84V0.895994H313.419V46.688C313.419 50.048 314.187 53.216 315.627 56.096C317.643 60.32 321.099 63.776 325.323 65.888C328.203 67.328 331.371 68.096 334.731 68.096H368.811V56.096L333.579 56Z" fill="white"/>
</svg>
